{"accessors":[{"bufferView":0,"componentType":5126,"count":138,"min":[-0.7994586229324341,-1.2962844371795655,-6.689945220947266],"max":[0.7994586229324341,0.36757951974868777,0.8234848976135254],"type":"VEC3","name":"OCCLUDER_vertices#0_POSITION"},{"bufferView":0,"byteOffset":12,"componentType":5120,"count":138,"type":"VEC4","name":"OCCLUDER_vertices#0_TANGENT"},{"bufferView":0,"byteOffset":16,"componentType":5120,"count":138,"type":"VEC4","name":"OCCLUDER_vertices#0_NORMAL"},{"bufferView":0,"byteOffset":20,"componentType":5122,"count":138,"type":"VEC2","name":"OCCLUDER_vertices#0_TEXCOORD_0"},{"bufferView":0,"byteOffset":24,"componentType":5122,"count":138,"type":"VEC2","name":"OCCLUDER_vertices#0_TEXCOORD_1"},{"bufferView":0,"byteOffset":28,"componentType":5123,"count":138,"type":"VEC4","name":"OCCLUDER_vertices#0_COLOR_0"},{"bufferView":1,"componentType":5123,"count":540,"type":"SCALAR","name":"OCCLUDER_indices#0"},{"bufferView":0,"byteOffset":4968,"componentType":5126,"count":28,"min":[-0.6708242893218994,-0.6979243755340576,-3.0176475048065187],"max":[0.6708242893218994,0.6084911823272705,2.955227851867676],"type":"VEC3","name":"x4_floor_vertices#0_POSITION"},{"bufferView":0,"byteOffset":4980,"componentType":5120,"count":28,"type":"VEC4","name":"x4_floor_vertices#0_TANGENT"},{"bufferView":0,"byteOffset":4984,"componentType":5120,"count":28,"type":"VEC4","name":"x4_floor_vertices#0_NORMAL"},{"bufferView":0,"byteOffset":4988,"componentType":5122,"count":28,"type":"VEC2","name":"x4_floor_vertices#0_TEXCOORD_0"},{"bufferView":0,"byteOffset":4992,"componentType":5122,"count":28,"type":"VEC2","name":"x4_floor_vertices#0_TEXCOORD_1"},{"bufferView":0,"byteOffset":4996,"componentType":5123,"count":28,"type":"VEC4","name":"x4_floor_vertices#0_COLOR_0"},{"bufferView":1,"byteOffset":1080,"componentType":5123,"count":42,"type":"SCALAR","name":"x4_floor_indices#0"},{"bufferView":0,"byteOffset":5976,"componentType":5126,"count":23,"min":[-0.6761826872825623,-0.7162044048309326,-0.9982632398605347],"max":[0.677210807800293,0.4624015688896179,0.4157707393169403],"type":"VEC3","name":"x4_floor_shell_vertices#0_POSITION"},{"bufferView":0,"byteOffset":5988,"componentType":5120,"count":23,"type":"VEC4","name":"x4_floor_shell_vertices#0_TANGENT"},{"bufferView":0,"byteOffset":5992,"componentType":5120,"count":23,"type":"VEC4","name":"x4_floor_shell_vertices#0_NORMAL"},{"bufferView":0,"byteOffset":5996,"componentType":5122,"count":23,"type":"VEC2","name":"x4_floor_shell_vertices#0_TEXCOORD_0"},{"bufferView":0,"byteOffset":6000,"componentType":5122,"count":23,"type":"VEC2","name":"x4_floor_shell_vertices#0_TEXCOORD_1"},{"bufferView":0,"byteOffset":6004,"componentType":5123,"count":23,"type":"VEC4","name":"x4_floor_shell_vertices#0_COLOR_0"},{"bufferView":1,"byteOffset":1164,"componentType":5123,"count":33,"type":"SCALAR","name":"x4_floor_shell_indices#0"},{"bufferView":0,"byteOffset":6804,"componentType":5126,"count":81,"min":[-0.7537419199943543,-0.1166384220123291,-0.6822803020477295],"max":[0.7567456364631653,0.4544432759284973,0.6583445072174072],"type":"VEC3","name":"x4_overhead_vertices#0_POSITION"},{"bufferView":0,"byteOffset":6816,"componentType":5120,"count":81,"type":"VEC4","name":"x4_overhead_vertices#0_TANGENT"},{"bufferView":0,"byteOffset":6820,"componentType":5120,"count":81,"type":"VEC4","name":"x4_overhead_vertices#0_NORMAL"},{"bufferView":0,"byteOffset":6824,"componentType":5122,"count":81,"type":"VEC2","name":"x4_overhead_vertices#0_TEXCOORD_0"},{"bufferView":0,"byteOffset":6828,"componentType":5122,"count":81,"type":"VEC2","name":"x4_overhead_vertices#0_TEXCOORD_1"},{"bufferView":0,"byteOffset":6832,"componentType":5123,"count":81,"type":"VEC4","name":"x4_overhead_vertices#0_COLOR_0"},{"bufferView":1,"byteOffset":1230,"componentType":5123,"count":189,"type":"SCALAR","name":"x4_overhead_indices#1"},{"bufferView":0,"byteOffset":9720,"componentType":5126,"count":42,"min":[-0.621117353439331,-0.21667438745498658,-0.2942679524421692],"max":[0.6146655678749085,0.5147318243980408,-0.13651305437088014],"type":"VEC3","name":"x4_SeatsCockpit_vertices#0_POSITION"},{"bufferView":0,"byteOffset":9732,"componentType":5120,"count":42,"type":"VEC4","name":"x4_SeatsCockpit_vertices#0_TANGENT"},{"bufferView":0,"byteOffset":9736,"componentType":5120,"count":42,"type":"VEC4","name":"x4_SeatsCockpit_vertices#0_NORMAL"},{"bufferView":0,"byteOffset":9740,"componentType":5122,"count":42,"type":"VEC2","name":"x4_SeatsCockpit_vertices#0_TEXCOORD_0"},{"bufferView":0,"byteOffset":9744,"componentType":5122,"count":42,"type":"VEC2","name":"x4_SeatsCockpit_vertices#0_TEXCOORD_1"},{"bufferView":0,"byteOffset":9748,"componentType":5123,"count":42,"type":"VEC4","name":"x4_SeatsCockpit_vertices#0_COLOR_0"},{"bufferView":1,"byteOffset":1608,"componentType":5123,"count":108,"type":"SCALAR","name":"x4_SeatsCockpit_indices#0"},{"bufferView":0,"byteOffset":11232,"componentType":5126,"count":120,"min":[-0.6419882774353027,-0.08256110548973084,0.1378747969865799],"max":[0.6277134418487549,0.18250131607055665,0.42060741782188418],"type":"VEC3","name":"x4_Glareshield_vertices#0_POSITION"},{"bufferView":0,"byteOffset":11244,"componentType":5120,"count":120,"type":"VEC4","name":"x4_Glareshield_vertices#0_TANGENT"},{"bufferView":0,"byteOffset":11248,"componentType":5120,"count":120,"type":"VEC4","name":"x4_Glareshield_vertices#0_NORMAL"},{"bufferView":0,"byteOffset":11252,"componentType":5122,"count":120,"type":"VEC2","name":"x4_Glareshield_vertices#0_TEXCOORD_0"},{"bufferView":0,"byteOffset":11256,"componentType":5122,"count":120,"type":"VEC2","name":"x4_Glareshield_vertices#0_TEXCOORD_1"},{"bufferView":0,"byteOffset":11260,"componentType":5123,"count":120,"type":"VEC4","name":"x4_Glareshield_vertices#0_COLOR_0"},{"bufferView":1,"byteOffset":1824,"componentType":5123,"count":228,"type":"SCALAR","name":"x4_Glareshield_indices#1"},{"bufferView":0,"byteOffset":15552,"componentType":5126,"count":648,"min":[-0.780523419380188,0.05443358048796654,-2.5746607780456545],"max":[0.18011897802352906,0.7173293828964233,0.9657922387123108],"type":"VEC3","name":"x4_seats_vertices#0_POSITION"},{"bufferView":0,"byteOffset":15564,"componentType":5120,"count":648,"type":"VEC4","name":"x4_seats_vertices#0_TANGENT"},{"bufferView":0,"byteOffset":15568,"componentType":5120,"count":648,"type":"VEC4","name":"x4_seats_vertices#0_NORMAL"},{"bufferView":0,"byteOffset":15572,"componentType":5122,"count":648,"type":"VEC2","name":"x4_seats_vertices#0_TEXCOORD_0"},{"bufferView":0,"byteOffset":15576,"componentType":5122,"count":648,"type":"VEC2","name":"x4_seats_vertices#0_TEXCOORD_1"},{"bufferView":0,"byteOffset":15580,"componentType":5123,"count":648,"type":"VEC4","name":"x4_seats_vertices#0_COLOR_0"},{"bufferView":1,"byteOffset":2280,"componentType":5123,"count":918,"type":"SCALAR","name":"x4_seats_indices#0"},{"bufferView":0,"byteOffset":38880,"componentType":5126,"count":16,"min":[-1.8756401538848878,-0.49438947439193728,-0.7770594954490662],"max":[-0.3649775981903076,0.3581896126270294,0.6615732312202454],"type":"VEC3","name":"x4_walls_vertices#0_POSITION"},{"bufferView":0,"byteOffset":38892,"componentType":5120,"count":16,"type":"VEC4","name":"x4_walls_vertices#0_TANGENT"},{"bufferView":0,"byteOffset":38896,"componentType":5120,"count":16,"type":"VEC4","name":"x4_walls_vertices#0_NORMAL"},{"bufferView":0,"byteOffset":38900,"componentType":5122,"count":16,"type":"VEC2","name":"x4_walls_vertices#0_TEXCOORD_0"},{"bufferView":0,"byteOffset":38904,"componentType":5122,"count":16,"type":"VEC2","name":"x4_walls_vertices#0_TEXCOORD_1"},{"bufferView":0,"byteOffset":38908,"componentType":5123,"count":16,"type":"VEC4","name":"x4_walls_vertices#0_COLOR_0"},{"bufferView":1,"byteOffset":4116,"componentType":5123,"count":24,"type":"SCALAR","name":"x4_walls_indices#0"},{"bufferView":0,"byteOffset":39456,"componentType":5126,"count":715,"min":[-0.7686820030212402,-0.34589633345603945,-2.131019353866577],"max":[0.7686820030212402,1.217024803161621,3.591830253601074],"type":"VEC3","name":"x4_details_vertices#0_POSITION"},{"bufferView":0,"byteOffset":39468,"componentType":5120,"count":715,"type":"VEC4","name":"x4_details_vertices#0_TANGENT"},{"bufferView":0,"byteOffset":39472,"componentType":5120,"count":715,"type":"VEC4","name":"x4_details_vertices#0_NORMAL"},{"bufferView":0,"byteOffset":39476,"componentType":5122,"count":715,"type":"VEC2","name":"x4_details_vertices#0_TEXCOORD_0"},{"bufferView":0,"byteOffset":39480,"componentType":5122,"count":715,"type":"VEC2","name":"x4_details_vertices#0_TEXCOORD_1"},{"bufferView":0,"byteOffset":39484,"componentType":5123,"count":715,"type":"VEC4","name":"x4_details_vertices#0_COLOR_0"},{"bufferView":1,"byteOffset":4164,"componentType":5123,"count":1563,"type":"SCALAR","name":"x4_details_indices#0"},{"bufferView":0,"byteOffset":65196,"componentType":5126,"count":1789,"min":[-0.7676771879196167,-0.36458340287208559,-2.3695826530456545],"max":[0.7715008854866028,1.2064975500106812,3.6033732891082765],"type":"VEC3","name":"x4_wall_vertices#0_POSITION"},{"bufferView":0,"byteOffset":65208,"componentType":5120,"count":1789,"type":"VEC4","name":"x4_wall_vertices#0_TANGENT"},{"bufferView":0,"byteOffset":65212,"componentType":5120,"count":1789,"type":"VEC4","name":"x4_wall_vertices#0_NORMAL"},{"bufferView":0,"byteOffset":65216,"componentType":5122,"count":1789,"type":"VEC2","name":"x4_wall_vertices#0_TEXCOORD_0"},{"bufferView":0,"byteOffset":65220,"componentType":5122,"count":1789,"type":"VEC2","name":"x4_wall_vertices#0_TEXCOORD_1"},{"bufferView":0,"byteOffset":65224,"componentType":5123,"count":1789,"type":"VEC4","name":"x4_wall_vertices#0_COLOR_0"},{"bufferView":1,"byteOffset":7290,"componentType":5123,"count":3081,"type":"SCALAR","name":"x4_wall_indices#0"}],"asset":{"generator":"babylon.js glTF exporter for 3dsmax 2019 v1.5.0","version":"2.0","extensions":{"ASOBO_asset_optimized":{"BoundingBoxMax":[0.7994586229324341,1.217024803161621,3.6033732891082765],"BoundingBoxMin":[-1.8756401538848878,-1.2962844371795655,-6.689945220947266],"MajorVersion":4,"MinorVersion":2},"ASOBO_normal_map_convention":{"tangent_space_convention":"DirectX"}}},"bufferViews":[{"buffer":0,"byteLength":129600,"byteStride":36,"byteOffset":64,"target":34962,"name":"BufferViewVertexND"},{"buffer":0,"byteLength":13452,"byteOffset":129780,"target":34963,"name":"BufferViewIndex"}],"extensionsUsed":["ASOBO_normal_map_convention","ASOBO_material_environment_occluder","ASOBO_material_detail_map","MSFT_texture_dds","ASOBO_asset_optimized"],"extensionsRequired":["MSFT_texture_dds"],"materials":[{"name":"Occluder","pbrMetallicRoughness":{"baseColorFactor":[0.07058824,1.0,0.07058824,0.0]},"extensions":{"ASOBO_material_environment_occluder":{}}},{"name":"floorx","normalTexture":{"index":2},"occlusionTexture":{"index":1},"pbrMetallicRoughness":{"baseColorTexture":{"index":0},"metallicRoughnessTexture":{"index":1}}},{"name":"floor","normalTexture":{"index":5},"occlusionTexture":{"index":4},"pbrMetallicRoughness":{"baseColorTexture":{"index":3},"metallicRoughnessTexture":{"index":4}},"extensions":{"ASOBO_material_detail_map":{"UVScale":15.0,"detailNormalTexture":{"index":6}}}},{"name":"INPUTS","normalTexture":{"index":9},"occlusionTexture":{"index":8},"emissiveTexture":{"index":10},"pbrMetallicRoughness":{"baseColorTexture":{"index":7},"metallicRoughnessTexture":{"index":8}}},{"name":"overhead","normalTexture":{"index":13},"occlusionTexture":{"index":12},"pbrMetallicRoughness":{"baseColorTexture":{"index":11},"metallicRoughnessTexture":{"index":12}},"extensions":{"ASOBO_material_detail_map":{"UVScale":12.0,"detailNormalTexture":{"index":14,"scale":0.6}}}},{"name":"seatsx","normalTexture":{"index":17},"occlusionTexture":{"index":16},"pbrMetallicRoughness":{"baseColorTexture":{"index":15},"metallicRoughnessTexture":{"index":16}}},{"name":"PANEL","normalTexture":{"index":20},"occlusionTexture":{"index":19},"pbrMetallicRoughness":{"baseColorTexture":{"index":18},"metallicRoughnessTexture":{"index":19}},"extensions":{"ASOBO_material_detail_map":{"UVScale":35.0,"detailNormalTexture":{"index":21}}}},{"name":"seats","normalTexture":{"index":24},"occlusionTexture":{"index":23},"pbrMetallicRoughness":{"baseColorTexture":{"index":22},"metallicRoughnessTexture":{"index":23}}},{"name":"details","normalTexture":{"index":27},"occlusionTexture":{"index":26},"pbrMetallicRoughness":{"baseColorTexture":{"index":25},"metallicRoughnessTexture":{"index":26}}},{"name":"wall","normalTexture":{"index":30},"occlusionTexture":{"index":29},"pbrMetallicRoughness":{"baseColorTexture":{"index":28},"metallicRoughnessTexture":{"index":29}}}],"meshes":[{"primitives":[{"attributes":{"COLOR_0":5,"NORMAL":2,"POSITION":0,"TANGENT":1,"TEXCOORD_0":3,"TEXCOORD_1":4},"indices":6,"material":0,"mode":4,"extras":{"ASOBO_primitive":{"PrimitiveCount":180,"VertexType":"VTX","VertexVersion":2}}}],"name":"OCCLUDER"},{"primitives":[{"attributes":{"COLOR_0":12,"NORMAL":9,"POSITION":7,"TANGENT":8,"TEXCOORD_0":10,"TEXCOORD_1":11},"indices":13,"material":1,"mode":4,"extras":{"ASOBO_primitive":{"PrimitiveCount":14,"VertexType":"VTX","VertexVersion":2}}}],"name":"x4_floor"},{"primitives":[{"attributes":{"COLOR_0":19,"NORMAL":16,"POSITION":14,"TANGENT":15,"TEXCOORD_0":17,"TEXCOORD_1":18},"indices":20,"material":2,"mode":4,"extras":{"ASOBO_primitive":{"PrimitiveCount":11,"VertexType":"VTX","VertexVersion":2}}}],"name":"x4_floor_shell"},{"primitives":[{"attributes":{"COLOR_0":26,"NORMAL":23,"POSITION":21,"TANGENT":22,"TEXCOORD_0":24,"TEXCOORD_1":25},"indices":27,"material":3,"mode":4,"extras":{"ASOBO_primitive":{"PrimitiveCount":4,"VertexType":"VTX","VertexVersion":2}}},{"attributes":{"COLOR_0":26,"NORMAL":23,"POSITION":21,"TANGENT":22,"TEXCOORD_0":24,"TEXCOORD_1":25},"indices":27,"material":4,"mode":4,"extras":{"ASOBO_primitive":{"PrimitiveCount":59,"StartIndex":12,"VertexType":"VTX","VertexVersion":2}}}],"name":"x4_overhead"},{"primitives":[{"attributes":{"COLOR_0":33,"NORMAL":30,"POSITION":28,"TANGENT":29,"TEXCOORD_0":31,"TEXCOORD_1":32},"indices":34,"material":5,"mode":4,"extras":{"ASOBO_primitive":{"PrimitiveCount":36,"VertexType":"VTX","VertexVersion":2}}}],"name":"x4_SeatsCockpit"},{"primitives":[{"attributes":{"COLOR_0":40,"NORMAL":37,"POSITION":35,"TANGENT":36,"TEXCOORD_0":38,"TEXCOORD_1":39},"indices":41,"material":3,"mode":4,"extras":{"ASOBO_primitive":{"PrimitiveCount":28,"VertexType":"VTX","VertexVersion":2}}},{"attributes":{"COLOR_0":40,"NORMAL":37,"POSITION":35,"TANGENT":36,"TEXCOORD_0":38,"TEXCOORD_1":39},"indices":41,"material":6,"mode":4,"extras":{"ASOBO_primitive":{"PrimitiveCount":48,"StartIndex":84,"VertexType":"VTX","VertexVersion":2}}}],"name":"x4_Glareshield"},{"primitives":[{"attributes":{"COLOR_0":47,"NORMAL":44,"POSITION":42,"TANGENT":43,"TEXCOORD_0":45,"TEXCOORD_1":46},"indices":48,"material":7,"mode":4,"extras":{"ASOBO_primitive":{"PrimitiveCount":306,"VertexType":"VTX","VertexVersion":2}}}],"name":"x4_seats"},{"primitives":[{"attributes":{"COLOR_0":54,"NORMAL":51,"POSITION":49,"TANGENT":50,"TEXCOORD_0":52,"TEXCOORD_1":53},"indices":55,"material":2,"mode":4,"extras":{"ASOBO_primitive":{"PrimitiveCount":8,"VertexType":"VTX","VertexVersion":2}}}],"name":"x4_walls"},{"primitives":[{"attributes":{"COLOR_0":61,"NORMAL":58,"POSITION":56,"TANGENT":57,"TEXCOORD_0":59,"TEXCOORD_1":60},"indices":62,"material":8,"mode":4,"extras":{"ASOBO_primitive":{"PrimitiveCount":521,"VertexType":"VTX","VertexVersion":2}}}],"name":"x4_details"},{"primitives":[{"attributes":{"COLOR_0":68,"NORMAL":65,"POSITION":63,"TANGENT":64,"TEXCOORD_0":66,"TEXCOORD_1":67},"indices":69,"material":9,"mode":4,"extras":{"ASOBO_primitive":{"PrimitiveCount":1027,"VertexType":"VTX","VertexVersion":2}}}],"name":"x4_wall"}],"nodes":[{"translation":[0.0,0.803329468,2.11779022],"rotation":[0.0,0.0,0.0,1.0],"scale":[1.0,1.0,1.0],"mesh":0,"name":"OCCLUDER"},{"translation":[0.0,0.2665297,-1.528714],"rotation":[8.742278e-8,0.0,0.0,1.0],"scale":[1.0,1.0,1.0],"mesh":1,"name":"floor"},{"translation":[1.52587745e-7,0.2241543,2.54780912],"rotation":[0.09963979,0.0,0.0,0.9950236],"scale":[1.0,1.0,1.0],"mesh":2,"name":"floor_shell"},{"translation":[0.0,0.666152954,2.10952377],"rotation":[0.0,0.0,0.0,1.0],"scale":[1.0,1.0,1.0],"mesh":3,"name":"overhead"},{"translation":[0.001825762,0.230056763,1.8669014],"rotation":[0.0,0.0,0.0,1.0],"scale":[1.0,1.0,1.0],"mesh":4,"name":"SeatsCockpit"},{"translation":[0.002974272,0.608954549,2.24539113],"rotation":[3.695498e-16,0.0,0.0,1.0],"scale":[1.0,1.0,1.0],"mesh":5,"name":"Glareshield"},{"translation":[0.354125977,-0.195556656,-0.0327148139],"rotation":[0.0,0.0,0.0,1.0],"scale":[1.35427928,1.0,1.46030736],"mesh":6,"name":"seats"},{"translation":[1.1255368,0.206054688,2.20441246],"rotation":[0.0,0.0,0.0,1.0],"scale":[1.0,1.0,1.0],"mesh":7,"name":"walls"},{"translation":[0.0,-0.06681192,-2.16618],"rotation":[0.0,0.0,0.0,1.0],"scale":[1.0,1.0,1.0],"mesh":8,"name":"details"},{"translation":[0.0,-0.06681192,-2.16823387],"rotation":[0.0,0.0,0.0,1.0],"scale":[1.0,1.0,1.0],"mesh":9,"name":"wall"},{"translation":[0.425830841,0.128817767,1.881714],"rotation":[0.0,0.0,0.0,1.0],"scale":[1.0,1.0,1.0],"name":"PILOT_0"},{"translation":[-0.412120819,0.128817767,1.881714],"rotation":[0.0,0.0,0.0,1.0],"scale":[1.0,1.0,1.0],"name":"PILOT_1"}],"scene":0,"scenes":[{"nodes":[0,1,2,3,4,5,6,7,8,9,10,11]}],"textures":[{"extensions":{"MSFT_texture_dds":{"source":0}}},{"extensions":{"MSFT_texture_dds":{"source":1}}},{"extensions":{"MSFT_texture_dds":{"source":2}}},{"extensions":{"MSFT_texture_dds":{"source":3}}},{"extensions":{"MSFT_texture_dds":{"source":4}}},{"extensions":{"MSFT_texture_dds":{"source":5}}},{"extensions":{"MSFT_texture_dds":{"source":6}}},{"extensions":{"MSFT_texture_dds":{"source":7}}},{"extensions":{"MSFT_texture_dds":{"source":8}}},{"extensions":{"MSFT_texture_dds":{"source":9}}},{"extensions":{"MSFT_texture_dds":{"source":10}}},{"extensions":{"MSFT_texture_dds":{"source":11}}},{"extensions":{"MSFT_texture_dds":{"source":12}}},{"extensions":{"MSFT_texture_dds":{"source":13}}},{"extensions":{"MSFT_texture_dds":{"source":14}}},{"extensions":{"MSFT_texture_dds":{"source":15}}},{"extensions":{"MSFT_texture_dds":{"source":16}}},{"extensions":{"MSFT_texture_dds":{"source":17}}},{"extensions":{"MSFT_texture_dds":{"source":18}}},{"extensions":{"MSFT_texture_dds":{"source":19}}},{"extensions":{"MSFT_texture_dds":{"source":20}}},{"extensions":{"MSFT_texture_dds":{"source":21}}},{"extensions":{"MSFT_texture_dds":{"source":22}}},{"extensions":{"MSFT_texture_dds":{"source":23}}},{"extensions":{"MSFT_texture_dds":{"source":24}}},{"extensions":{"MSFT_texture_dds":{"source":25}}},{"extensions":{"MSFT_texture_dds":{"source":26}}},{"extensions":{"MSFT_texture_dds":{"source":27}}},{"extensions":{"MSFT_texture_dds":{"source":28}}},{"extensions":{"MSFT_texture_dds":{"source":29}}},{"extensions":{"MSFT_texture_dds":{"source":30}}}],"buffers":[{"byteLength":143232,"uri":"KINGAIR_350I_interior_LOD4.bin"}],"images":[{"uri":"KINGAIR350I_CABIN_FLOOR_ALBD.PNG.DDS","extras":"ASOBO_image_converted_meta"},{"uri":"KINGAIR350I_CABIN_FLOOR_COMP.PNG.DDS","extras":"ASOBO_image_converted_meta"},{"uri":"KINGAIR350I_CABIN_FLOOR_NORM.PNG.DDS","extras":"ASOBO_image_converted_meta"},{"uri":"KINGAIR350I_COCKPIT_FLOOR_ALBD.PNG.DDS","extras":"ASOBO_image_converted_meta"},{"uri":"KINGAIR350I_COCKPIT_FLOOR_COMP.PNG.DDS","extras":"ASOBO_image_converted_meta"},{"uri":"KINGAIR350I_COCKPIT_FLOOR_NORM.PNG.DDS","extras":"ASOBO_image_converted_meta"},{"uri":"LEATHER_DETAIL_NORM.PNG.DDS","extras":"ASOBO_image_converted_meta"},{"uri":"KINGAIR350I_COCKPIT_INPUTS_ALBD.PNG.DDS","extras":"ASOBO_image_converted_meta"},{"uri":"KINGAIR350I_COCKPIT_INPUTS_COMP.PNG.DDS","extras":"ASOBO_image_converted_meta"},{"uri":"KINGAIR350I_COCKPIT_INPUTS_NORM.PNG.DDS","extras":"ASOBO_image_converted_meta"},{"uri":"KINGAIR350I_COCKPIT_INPUTS_EMIS.PNG.DDS","extras":"ASOBO_image_converted_meta"},{"uri":"KINGAIR350I_COCKPIT_OVERHEAD_ALBD.PNG.DDS","extras":"ASOBO_image_converted_meta"},{"uri":"KINGAIR350I_COCKPIT_OVERHEAD_COMP.PNG.DDS","extras":"ASOBO_image_converted_meta"},{"uri":"KINGAIR350I_COCKPIT_OVERHEAD_NORM.PNG.DDS","extras":"ASOBO_image_converted_meta"},{"uri":"PLASTICGRAIN_THIN.PNG.DDS","extras":"ASOBO_image_converted_meta"},{"uri":"KINGAIR350I_COCKPIT_SEATS_ALBD.PNG.DDS","extras":"ASOBO_image_converted_meta"},{"uri":"KINGAIR350I_COCKPIT_SEATS_COMP.PNG.DDS","extras":"ASOBO_image_converted_meta"},{"uri":"KINGAIR350I_COCKPIT_SEATS_NORM.PNG.DDS","extras":"ASOBO_image_converted_meta"},{"uri":"KINGAIR350I_COCKPIT_PANEL_ALBD.PNG.DDS","extras":"ASOBO_image_converted_meta"},{"uri":"KINGAIR350I_COCKPIT_PANEL_COMP.PNG.DDS","extras":"ASOBO_image_converted_meta"},{"uri":"KINGAIR350I_COCKPIT_PANEL_NORM.PNG.DDS","extras":"ASOBO_image_converted_meta"},{"uri":"BUBBLY_PLASTIC_NORM.PNG.DDS","extras":"ASOBO_image_converted_meta"},{"uri":"KINGAIR350I_CABIN_SEATS_ALBD.PNG.DDS","extras":"ASOBO_image_converted_meta"},{"uri":"KINGAIR350I_CABIN_SEATS_COMP.PNG.DDS","extras":"ASOBO_image_converted_meta"},{"uri":"KINGAIR350I_CABIN_SEATS_NORM.PNG.DDS","extras":"ASOBO_image_converted_meta"},{"uri":"KINGAIR350I_CABIN_DETAILS_ALBD.PNG.DDS","extras":"ASOBO_image_converted_meta"},{"uri":"KINGAIR350I_CABIN_DETAILS_COMP.PNG.DDS","extras":"ASOBO_image_converted_meta"},{"uri":"KINGAIR350I_CABIN_DETAILS_NORM.PNG.DDS","extras":"ASOBO_image_converted_meta"},{"uri":"KINGAIR350I_CABIN_WALL_ALBD.PNG.DDS","extras":"ASOBO_image_converted_meta"},{"uri":"KINGAIR350I_CABIN_WALL_COMP.PNG.DDS","extras":"ASOBO_image_converted_meta"},{"uri":"KINGAIR350I_CABIN_WALL_NORM.PNG.DDS","extras":"ASOBO_image_converted_meta"}]}
