{"accessors":[{"bufferView":0,"componentType":5126,"count":3,"min":[0.0],"max":[0.06666667],"type":"SCALAR","name":"accessorAnimationInput"},{"bufferView":1,"componentType":5126,"count":3,"type":"VEC4","name":"accessorAnimationRotations"},{"bufferView":0,"byteOffset":12,"componentType":5126,"count":3,"min":[0.0],"max":[0.06666667],"type":"SCALAR","name":"accessorAnimationInput"},{"bufferView":1,"byteOffset":48,"componentType":5126,"count":3,"type":"VEC4","name":"accessorAnimationRotations"},{"bufferView":2,"componentType":5126,"count":75,"min":[0.18955731391906739,-0.23942416906356812,-0.039859652519226077],"max":[1.231523871421814,0.0008227825164794922,0.019641488790512086],"type":"VEC3","name":"x6_rudder_trim_livery_vertices#0_POSITION"},{"bufferView":2,"byteOffset":12,"componentType":5120,"count":75,"type":"VEC4","name":"x6_rudder_trim_livery_vertices#0_TANGENT"},{"bufferView":2,"byteOffset":16,"componentType":5120,"count":75,"type":"VEC4","name":"x6_rudder_trim_livery_vertices#0_NORMAL"},{"bufferView":2,"byteOffset":20,"componentType":5122,"count":75,"type":"VEC2","name":"x6_rudder_trim_livery_vertices#0_TEXCOORD_0"},{"bufferView":2,"byteOffset":24,"componentType":5122,"count":75,"type":"VEC2","name":"x6_rudder_trim_livery_vertices#0_TEXCOORD_1"},{"bufferView":2,"byteOffset":28,"componentType":5123,"count":75,"type":"VEC4","name":"x6_rudder_trim_livery_vertices#0_COLOR_0"},{"bufferView":3,"componentType":5123,"count":159,"type":"SCALAR","name":"x6_rudder_trim_livery_indices#0"},{"bufferView":2,"byteOffset":2700,"componentType":5126,"count":418,"min":[0.06339085102081299,-0.6708299517631531,-0.09430883079767227],"max":[2.4450860023498537,0.0565512478351593,0.15184926986694337],"type":"VEC3","name":"x6_rudder_livery_vertices#0_POSITION"},{"bufferView":2,"byteOffset":2712,"componentType":5120,"count":418,"type":"VEC4","name":"x6_rudder_livery_vertices#0_TANGENT"},{"bufferView":2,"byteOffset":2716,"componentType":5120,"count":418,"type":"VEC4","name":"x6_rudder_livery_vertices#0_NORMAL"},{"bufferView":2,"byteOffset":2720,"componentType":5122,"count":418,"type":"VEC2","name":"x6_rudder_livery_vertices#0_TEXCOORD_0"},{"bufferView":2,"byteOffset":2724,"componentType":5122,"count":418,"type":"VEC2","name":"x6_rudder_livery_vertices#0_TEXCOORD_1"},{"bufferView":2,"byteOffset":2728,"componentType":5123,"count":418,"type":"VEC4","name":"x6_rudder_livery_vertices#0_COLOR_0"},{"bufferView":3,"byteOffset":318,"componentType":5123,"count":720,"type":"SCALAR","name":"x6_rudder_livery_indices#0"},{"bufferView":2,"byteOffset":17748,"componentType":5126,"count":5485,"min":[-2.7706141471862795,-0.9140845537185669,-7.826999664306641],"max":[2.770613193511963,2.5892326831817629,6.430240631103516],"type":"VEC3","name":"x6_fuselage_vertices#0_POSITION"},{"bufferView":2,"byteOffset":17760,"componentType":5120,"count":5485,"type":"VEC4","name":"x6_fuselage_vertices#0_TANGENT"},{"bufferView":2,"byteOffset":17764,"componentType":5120,"count":5485,"type":"VEC4","name":"x6_fuselage_vertices#0_NORMAL"},{"bufferView":2,"byteOffset":17768,"componentType":5122,"count":5485,"type":"VEC2","name":"x6_fuselage_vertices#0_TEXCOORD_0"},{"bufferView":2,"byteOffset":17772,"componentType":5122,"count":5485,"type":"VEC2","name":"x6_fuselage_vertices#0_TEXCOORD_1"},{"bufferView":2,"byteOffset":17776,"componentType":5123,"count":5485,"type":"VEC4","name":"x6_fuselage_vertices#0_COLOR_0"},{"bufferView":3,"byteOffset":1758,"componentType":5123,"count":14853,"type":"SCALAR","name":"x6_fuselage_indices#3"},{"bufferView":2,"byteOffset":215208,"componentType":5126,"count":3919,"min":[-8.779419898986817,-0.8367437124252319,0.3374500870704651],"max":[8.779419898986817,0.6927520632743836,2.4267377853393556],"type":"VEC3","name":"x6_Wings_vertices#0_POSITION"},{"bufferView":2,"byteOffset":215220,"componentType":5120,"count":3919,"type":"VEC4","name":"x6_Wings_vertices#0_TANGENT"},{"bufferView":2,"byteOffset":215224,"componentType":5120,"count":3919,"type":"VEC4","name":"x6_Wings_vertices#0_NORMAL"},{"bufferView":2,"byteOffset":215228,"componentType":5122,"count":3919,"type":"VEC2","name":"x6_Wings_vertices#0_TEXCOORD_0"},{"bufferView":2,"byteOffset":215232,"componentType":5122,"count":3919,"type":"VEC2","name":"x6_Wings_vertices#0_TEXCOORD_1"},{"bufferView":2,"byteOffset":215236,"componentType":5123,"count":3919,"type":"VEC4","name":"x6_Wings_vertices#0_COLOR_0"},{"bufferView":3,"byteOffset":31464,"componentType":5123,"count":8862,"type":"SCALAR","name":"x6_Wings_indices#0"},{"bufferView":2,"byteOffset":356292,"componentType":5126,"count":3370,"min":[-3.035156011581421,-0.9170248508453369,-7.099348068237305],"max":[3.0351860523223879,2.584338903427124,6.4377617835998539],"type":"VEC3","name":"x6_fuselage_livery_vertices#0_POSITION"},{"bufferView":2,"byteOffset":356304,"componentType":5120,"count":3370,"type":"VEC4","name":"x6_fuselage_livery_vertices#0_TANGENT"},{"bufferView":2,"byteOffset":356308,"componentType":5120,"count":3370,"type":"VEC4","name":"x6_fuselage_livery_vertices#0_NORMAL"},{"bufferView":2,"byteOffset":356312,"componentType":5122,"count":3370,"type":"VEC2","name":"x6_fuselage_livery_vertices#0_TEXCOORD_0"},{"bufferView":2,"byteOffset":356316,"componentType":5122,"count":3370,"type":"VEC2","name":"x6_fuselage_livery_vertices#0_TEXCOORD_1"},{"bufferView":2,"byteOffset":356320,"componentType":5123,"count":3370,"type":"VEC4","name":"x6_fuselage_livery_vertices#0_COLOR_0"},{"bufferView":3,"byteOffset":49188,"componentType":5123,"count":10002,"type":"SCALAR","name":"x6_fuselage_livery_indices#0"}],"animations":[{"name":"HANDLING_Rudder","channels":[{"sampler":0,"target":{"node":1,"path":"rotation"}}],"samplers":[{"input":0,"output":1,"interpolation":"LINEAR"}]},{"name":"HANDLING_RudderTrim","channels":[{"sampler":0,"target":{"node":2,"path":"rotation"}}],"samplers":[{"input":2,"output":3,"interpolation":"LINEAR"}]}],"asset":{"generator":"babylon.js glTF exporter for 3dsmax 2019 v1.5.0","version":"2.0","extensions":{"ASOBO_asset_optimized":{"BoundingBoxMax":[8.779419898986817,2.5892326831817629,6.4377617835998539],"BoundingBoxMin":[-8.779419898986817,-0.9170248508453369,-7.826999664306641],"MajorVersion":4,"MinorVersion":2},"ASOBO_normal_map_convention":{"tangent_space_convention":"DirectX"}}},"bufferViews":[{"buffer":0,"byteLength":24,"byteOffset":104,"name":"bufferViewAnimationFloatScalar"},{"buffer":0,"byteLength":96,"byteOffset":160,"name":"bufferViewAnimationFloatVec4"},{"buffer":0,"byteLength":477612,"byteStride":36,"byteOffset":340,"target":34962,"name":"BufferViewVertexND"},{"buffer":0,"byteLength":69192,"byteOffset":478008,"target":34963,"name":"BufferViewIndex"}],"extensionsUsed":["ASOBO_normal_map_convention","ASOBO_material_draw_order","ASOBO_material_blend_gbuffer","MSFT_texture_dds","ASOBO_asset_optimized"],"extensionsRequired":["MSFT_texture_dds"],"materials":[{"name":"livery","alphaMode":"BLEND","pbrMetallicRoughness":{"metallicFactor":0.0,"roughnessFactor":0.2,"baseColorTexture":{"index":0}},"extensions":{"ASOBO_material_blend_gbuffer":{"emissiveBlendFactor":0.0,"normalBlendFactor":0.0,"occlusionBlendFactor":0.0},"ASOBO_material_draw_order":{"drawOrderOffset":8}}},{"name":"fuselage","normalTexture":{"index":3},"occlusionTexture":{"index":2},"pbrMetallicRoughness":{"baseColorTexture":{"index":1},"metallicRoughnessTexture":{"index":2}}},{"name":"wings","normalTexture":{"index":6},"occlusionTexture":{"index":5},"pbrMetallicRoughness":{"baseColorTexture":{"index":4},"metallicRoughnessTexture":{"index":5}}},{"name":"tail","normalTexture":{"index":9},"occlusionTexture":{"index":8},"pbrMetallicRoughness":{"baseColorTexture":{"index":7},"metallicRoughnessTexture":{"index":8}}},{"name":"rivets","alphaMode":"BLEND","normalTexture":{"index":12},"occlusionTexture":{"index":11},"pbrMetallicRoughness":{"baseColorTexture":{"index":10},"metallicRoughnessTexture":{"index":11}},"extensions":{"ASOBO_material_blend_gbuffer":{"baseColorBlendFactor":0.0,"emissiveBlendFactor":0.0,"metallicBlendFactor":0.0,"roughnessBlendFactor":0.0},"ASOBO_material_draw_order":{"drawOrderOffset":6}}}],"meshes":[{"primitives":[{"attributes":{"COLOR_0":9,"NORMAL":6,"POSITION":4,"TANGENT":5,"TEXCOORD_0":7,"TEXCOORD_1":8},"indices":10,"material":0,"mode":4,"extras":{"ASOBO_primitive":{"PrimitiveCount":53,"VertexType":"VTX","VertexVersion":2}}}],"name":"x6_rudder_trim_livery"},{"primitives":[{"attributes":{"COLOR_0":16,"NORMAL":13,"POSITION":11,"TANGENT":12,"TEXCOORD_0":14,"TEXCOORD_1":15},"indices":17,"material":0,"mode":4,"extras":{"ASOBO_primitive":{"PrimitiveCount":240,"VertexType":"VTX","VertexVersion":2}}}],"name":"x6_rudder_livery"},{"primitives":[{"attributes":{"COLOR_0":23,"NORMAL":20,"POSITION":18,"TANGENT":19,"TEXCOORD_0":21,"TEXCOORD_1":22},"indices":24,"material":1,"mode":4,"extras":{"ASOBO_primitive":{"PrimitiveCount":2458,"VertexType":"VTX","VertexVersion":2}}},{"attributes":{"COLOR_0":23,"NORMAL":20,"POSITION":18,"TANGENT":19,"TEXCOORD_0":21,"TEXCOORD_1":22},"indices":24,"material":2,"mode":4,"extras":{"ASOBO_primitive":{"PrimitiveCount":710,"StartIndex":7374,"VertexType":"VTX","VertexVersion":2}}},{"attributes":{"COLOR_0":23,"NORMAL":20,"POSITION":18,"TANGENT":19,"TEXCOORD_0":21,"TEXCOORD_1":22},"indices":24,"material":3,"mode":4,"extras":{"ASOBO_primitive":{"PrimitiveCount":1666,"StartIndex":9504,"VertexType":"VTX","VertexVersion":2}}},{"attributes":{"COLOR_0":23,"NORMAL":20,"POSITION":18,"TANGENT":19,"TEXCOORD_0":21,"TEXCOORD_1":22},"indices":24,"material":4,"mode":4,"extras":{"ASOBO_primitive":{"PrimitiveCount":117,"StartIndex":14502,"VertexType":"VTX","VertexVersion":2}}}],"name":"x6_fuselage"},{"primitives":[{"attributes":{"COLOR_0":30,"NORMAL":27,"POSITION":25,"TANGENT":26,"TEXCOORD_0":28,"TEXCOORD_1":29},"indices":31,"material":2,"mode":4,"extras":{"ASOBO_primitive":{"PrimitiveCount":2954,"VertexType":"VTX","VertexVersion":2}}}],"name":"x6_Wings"},{"primitives":[{"attributes":{"COLOR_0":37,"NORMAL":34,"POSITION":32,"TANGENT":33,"TEXCOORD_0":35,"TEXCOORD_1":36},"indices":38,"material":0,"mode":4,"extras":{"ASOBO_primitive":{"PrimitiveCount":3334,"VertexType":"VTX","VertexVersion":2}}}],"name":"x6_fuselage_livery"}],"nodes":[{"translation":[0.0,0.266922,-1.5288868],"rotation":[0.0,0.0,0.0,1.0],"scale":[1.0,1.0,1.0],"name":"Hips","children":[1]},{"translation":[0.0,1.24271023,-6.02309227],"rotation":[0.3301323,0.625310063,0.3301323,0.625310063],"scale":[1.0,1.0,1.0],"name":"Rudder","children":[2,5]},{"translation":[4.76837158e-7,-0.55894804,0.0],"rotation":[0.0,0.0,0.0,1.0],"scale":[1.0,1.0,1.0],"name":"RudderTrimTab","children":[3]},{"translation":[-0.631839752,-0.009999752,-0.0196518917],"rotation":[0.0261680689,-0.00566583732,0.0255566929,0.9993148],"scale":[1.00000012,1.0,0.9999998],"name":"rudder_trim","children":[4]},{"translation":[-0.00000238418579,4.76837158e-7,-4.47034836e-7],"rotation":[2.16998174e-7,1.76951342e-8,7.450582e-9,1.0],"scale":[0.999999762,1.00000024,0.999999642],"mesh":0,"name":"rudder_trim_livery"},{"translation":[-0.93705225,0.0157094,0.0],"rotation":[0.121869706,3.54284637e-8,0.0,0.992546141],"scale":[1.00000024,1.00000024,0.99999994],"name":"RUDDER_1","children":[6]},{"translation":[9.536743e-7,-0.00000238418579,0.00000357627869],"rotation":[7.450598e-9,-3.725291e-9,-2.23517382e-8,1.0],"scale":[1.00000024,1.0000006,1.0],"mesh":1,"name":"rudder_livery"},{"translation":[0.0,0.266922,-1.5288868],"rotation":[4.656613e-10,0.0,0.0,1.0],"scale":[1.0,1.0,1.0],"mesh":2,"name":"fuselage"},{"translation":[0.0,0.266922,-1.5288868],"rotation":[4.656613e-10,0.0,0.0,1.0],"scale":[1.0,1.0,1.0],"mesh":3,"name":"Wings"},{"translation":[0.0,0.266922,-1.5288868],"rotation":[0.0,0.0,0.0,1.0],"scale":[1.0,1.0,1.0],"mesh":4,"name":"fuselage_livery"}],"scene":0,"scenes":[{"nodes":[0,7,8,9]}],"textures":[{"extensions":{"MSFT_texture_dds":{"source":0}}},{"extensions":{"MSFT_texture_dds":{"source":1}}},{"extensions":{"MSFT_texture_dds":{"source":2}}},{"extensions":{"MSFT_texture_dds":{"source":3}}},{"extensions":{"MSFT_texture_dds":{"source":4}}},{"extensions":{"MSFT_texture_dds":{"source":5}}},{"extensions":{"MSFT_texture_dds":{"source":6}}},{"extensions":{"MSFT_texture_dds":{"source":7}}},{"extensions":{"MSFT_texture_dds":{"source":8}}},{"extensions":{"MSFT_texture_dds":{"source":9}}},{"extensions":{"MSFT_texture_dds":{"source":10}}},{"extensions":{"MSFT_texture_dds":{"source":11}}},{"extensions":{"MSFT_texture_dds":{"source":12}}}],"buffers":[{"byteLength":547200,"uri":"KINGAIR_350I_LOD6.bin"}],"images":[{"uri":"KINGAIR350I_AIRFRAME_LIVERY_ALBD.PNG.DDS","extras":"ASOBO_image_converted_meta"},{"uri":"KINGAIR350I_AIRFRAME_FUSELAGE_ALBD.PNG.DDS","extras":"ASOBO_image_converted_meta"},{"uri":"KINGAIR350I_AIRFRAME_FUSELAGE_COMP.PNG.DDS","extras":"ASOBO_image_converted_meta"},{"uri":"KINGAIR350I_AIRFRAME_FUSELAGE_NORM.PNG.DDS","extras":"ASOBO_image_converted_meta"},{"uri":"KINGAIR350I_AIRFRAME_WINGS_ALBD.PNG.DDS","extras":"ASOBO_image_converted_meta"},{"uri":"KINGAIR350I_AIRFRAME_WINGS_COMP.PNG.DDS","extras":"ASOBO_image_converted_meta"},{"uri":"KINGAIR350I_AIRFRAME_WINGS_NORM.PNG.DDS","extras":"ASOBO_image_converted_meta"},{"uri":"KINGAIR350I_AIRFRAME_TAIL_ALBD.PNG.DDS","extras":"ASOBO_image_converted_meta"},{"uri":"KINGAIR350I_AIRFRAME_TAIL_COMP.PNG.DDS","extras":"ASOBO_image_converted_meta"},{"uri":"KINGAIR350I_AIRFRAME_TAIL_NORM.PNG.DDS","extras":"ASOBO_image_converted_meta"},{"uri":"KINGAIR350I_AIRFRAME_RIVETS_ALBD.PNG.DDS","extras":"ASOBO_image_converted_meta"},{"uri":"KINGAIR350I_AIRFRAME_RIVETS_COMP.PNG.DDS","extras":"ASOBO_image_converted_meta"},{"uri":"KINGAIR350I_AIRFRAME_RIVETS_NORM.PNG.DDS","extras":"ASOBO_image_converted_meta"}]}
